# xmcd
#
# Track frame offsets: 
#        150
#        14643
#        24755
#        37465
#        46330
#        60190
#        72252
#        85603
#        96843
#        113203
#        124966
#        136743
#
# Disc length: 2015 seconds
#
# Revision: 0
# Processed by: cddbd v1.5.2PL0 Copyright (c) Steve Scherf et al.
# Submitted via: ExactAudioCopyFreeDBPlugin 1.0
#
DISCID=9b07dd0c
DTITLE=Suzi Weber - The Classics
DYEAR=1900
DGENRE=Country
TTITLE0=Delta Dawn
TTITLE1=You Ain't Woman Enough
TTITLE2=Jolene
TTITLE3=Walkin' After Midnight
TTITLE4=Coal Miner's Daughter
TTITLE5=Crazy
TTITLE6=A Little Good News
TTITLE7=Blue Eyes Cryin' in the Rain
TTITLE8=Grandpa
TTITLE9=It Wasn't God Who Made Honky Tonk Angels
TTITLE10=Help Me Make It Through the Night
TTITLE11=Amazing Grace
EXTD=
EXTT0=
EXTT1=
EXTT2=
EXTT3=
EXTT4=
EXTT5=
EXTT6=
EXTT7=
EXTT8=
EXTT9=
EXTT10=
EXTT11=
PLAYORDER=
